<svg version="1.1" xmlns="http://www.w3.org/2000/svg" xmlns:xlink="http://www.w3.org/1999/xlink" width="20" height="19"><defs/><g><path fill="rgb(0,0,0)" stroke="none" paint-order="stroke fill markers" fill-rule="evenodd" d=" M 15.082734107971191 1.0033149719238281 C 15.082734107971191 1.0033149719238281 4.919844150543213 1.0033149719238281 4.919844150543213 1.0033149719238281 C 2.7602367401123047 1.0033149719238281 1.0028533935546875 2.774216651916504 1.0028533935546875 4.950310707092285 C 1.0028533935546875 4.950310707092285 1.0028533935546875 12.059523582458496 1.0028533935546875 12.059523582458496 C 1.0028533935546875 12.200858116149902 1.0587506294250488 12.337114334106445 1.15809965133667 12.436677932739258 C 1.15809965133667 12.436677932739258 6.522517681121826 17.84193706512451 6.522517681121826 17.84193706512451 C 6.621330261230469 17.941858291625977 6.755977153778076 17.998148918151855 6.896417617797852 17.998148918151855 C 6.896417617797852 17.998148918151855 15.082734107971191 17.998148918151855 15.082734107971191 17.998148918151855 C 17.2423415184021 17.998148918151855 18.998544692993164 16.22724723815918 18.998544692993164 14.05136775970459 C 18.998544692993164 14.05136775970459 18.998544692993164 4.950310707092285 18.998544692993164 4.950310707092285 C 18.998544692993164 2.774216651916504 17.2423415184021 1.0033149719238281 15.082734107971191 1.0033149719238281 Z M 6.633882999420166 16.446473121643066 C 6.633882999420166 16.446473121643066 2.3598365783691406 12.139989852905273 2.3598365783691406 12.139989852905273 C 2.3598365783691406 12.139989852905273 4.454534530639648 12.139989852905273 4.454534530639648 12.139989852905273 C 5.615180015563965 12.139989852905273 6.633882999420166 13.010956764221191 6.633882999420166 14.003087997436523 C 6.633882999420166 14.003087997436523 6.633882999420166 16.446473121643066 6.633882999420166 16.446473121643066 Z M 17.940145015716553 14.05136775970459 C 17.940145015716553 15.640165328979492 16.658156394958496 16.93198871612549 15.082734107971191 16.93198871612549 C 15.082734107971191 16.93198871612549 7.69271183013916 16.93198871612549 7.69271183013916 16.93198871612549 C 7.69271183013916 16.93198871612549 7.69271183013916 14.003087997436523 7.69271183013916 14.003087997436523 C 7.69271183013916 12.415005683898926 6.209879398345947 11.072470664978027 4.454534530639648 11.072470664978027 C 4.454534530639648 11.072470664978027 2.061574935913086 11.072470664978027 2.061574935913086 11.072470664978027 C 2.061574935913086 11.072470664978027 2.061574935913086 4.950310707092285 2.061574935913086 4.950310707092285 C 2.061574935913086 3.362299919128418 3.344099998474121 2.069904327392578 4.919844150543213 2.069904327392578 C 4.919844150543213 2.069904327392578 15.08327054977417 2.069904327392578 15.08327054977417 2.069904327392578 C 16.65858554840088 2.069904327392578 17.94068145751953 3.3619422912597656 17.94068145751953 4.950310707092285 C 17.94068145751953 4.950310707092285 17.94068145751953 14.05136775970459 17.94068145751953 14.05136775970459 C 17.94068145751953 14.05136775970459 17.940145015716553 14.05136775970459 17.940145015716553 14.05136775970459 Z M 14.077871322631836 5.130483627319336 C 14.077871322631836 5.130483627319336 5.609601020812988 5.130483627319336 5.609601020812988 5.130483627319336 C 5.31691837310791 5.130483627319336 5.080025672912598 5.368806838989258 5.080025672912598 5.6635637283325195 C 5.080025672912598 5.95817756652832 5.317347526550293 6.196643829345703 5.609601020812988 6.196643829345703 C 5.609601020812988 6.196643829345703 14.077871322631836 6.196643829345703 14.077871322631836 6.196643829345703 C 14.37066125869751 6.196643829345703 14.60712480545044 5.95817756652832 14.60712480545044 5.6635637283325195 C 14.60712480545044 5.368806838989258 14.37066125869751 5.130483627319336 14.077871322631836 5.130483627319336 Z M 14.077871322631836 8.331110000610352 C 14.077871322631836 8.331110000610352 5.609601020812988 8.331110000610352 5.609601020812988 8.331110000610352 C 5.31691837310791 8.331110000610352 5.080025672912598 8.570219993591309 5.080025672912598 8.863975524902344 C 5.080025672912598 9.15937614440918 5.317347526550293 9.397699356079102 5.609601020812988 9.397699356079102 C 5.609601020812988 9.397699356079102 14.077871322631836 9.397699356079102 14.077871322631836 9.397699356079102 C 14.37066125869751 9.397699356079102 14.60712480545044 9.159018516540527 14.60712480545044 8.863975524902344 C 14.60712480545044 8.570219993591309 14.37066125869751 8.331110000610352 14.077871322631836 8.331110000610352 Z"/></g></svg>