<svg version="1.1" xmlns="http://www.w3.org/2000/svg" xmlns:xlink="http://www.w3.org/1999/xlink" width="22" height="20"><defs/><g><path fill="rgb(0,0,0)" stroke="none" paint-order="stroke fill markers" fill-rule="evenodd" d=" M 14.06903886795044 8.343345642089844 C 13.595146179199219 8.501774787902832 9.413260459899902 9.928924560546875 8.494335651397705 10.980779647827148 C 8.000916481018066 11.546403884887695 7.762521743774414 12.266308784484863 7.823461532592773 13.007170677185059 C 7.884401321411133 13.74731731414795 8.237380027770996 14.421088218688965 8.816951751708984 14.902169227600098 C 9.331828594207764 15.330321311950684 9.98811149597168 15.56621265411377 10.66402816772461 15.56621265411377 C 11.501091957092285 15.56621265411377 12.292236328125 15.209657669067383 12.83457899093628 14.588529586791992 C 13.752860069274902 13.53531551361084 14.529735088348389 9.279043197631836 14.615136623382568 8.796960830688477 C 14.640242099761963 8.654982566833496 14.586919784545898 8.511716842651367 14.474696159362793 8.417875289916992 C 14.362472534179688 8.324605941772461 14.20883560180664 8.29556655883789 14.06903886795044 8.343345642089844 Z M 12.199753761291504 14.061243057250977 C 11.505383491516113 14.85667896270752 10.172540187835693 14.962179183959961 9.356290340423584 14.28297233581543 C 8.946341514587402 13.942224502563477 8.696681499481201 13.46657943725586 8.653658866882324 12.942296981811523 C 8.610528945922852 12.417943000793457 8.779186248779297 11.90875244140625 9.12819528579712 11.508709907531738 C 9.643715858459473 10.91848087310791 11.916297912597656 9.971482276916504 13.663381576538086 9.347135543823242 C 13.31469440460205 11.094719886779785 12.70969533920288 13.476950645446777 12.199753761291504 14.061243057250977 Z M 10.999733448028564 1.9978113174438477 C 5.485648155212402 1.9978113174438477 1.0000290870666504 6.438261985778809 1.0000290870666504 11.897165298461914 C 1.0000290870666504 13.978988647460938 1.698047161102295 16.086990356445312 2.9663028717041016 17.831928253173828 C 3.0440869331359863 17.940074920654297 3.171009063720703 18.003661155700684 3.3059778213500977 18.003661155700684 C 3.3059778213500977 18.003661155700684 18.69348907470703 18.003661155700684 18.69348907470703 18.003661155700684 C 18.828457832336426 18.003661155700684 18.955272674560547 17.94036102294922 19.033164024353027 17.831928253173828 C 20.30174160003662 16.086990356445312 20.999759674072266 13.962895393371582 20.999759674072266 11.85067367553711 C 20.99943780899048 6.4179487228393555 16.513818740844727 1.9978113174438477 10.999733448028564 1.9978113174438477 Z M 18.475479125976562 17.18984317779541 C 18.475479125976562 17.18984317779541 3.5238804817199707 17.18984317779541 3.5238804817199707 17.18984317779541 C 2.4321141242980957 15.615565299987793 1.8331232070922852 13.744098663330078 1.8331232070922852 11.896879196166992 C 1.8331232070922852 6.8870849609375 5.945164203643799 2.810556411743164 10.999733448028564 2.810556411743164 C 16.053980827331543 2.810556411743164 20.166343688964844 6.865198135375977 20.166343688964844 11.850387573242188 C 20.166343688964844 13.727004051208496 19.567245483398438 15.615279197692871 18.475479125976562 17.18984317779541 Z M 10.999733448028564 4.337770462036133 C 7.127374649047852 4.337770462036133 3.977602958679199 7.4421234130859375 3.977602958679199 11.258012771606445 C 3.977602958679199 11.483175277709961 4.164070129394531 11.664850234985352 4.394096374511719 11.664850234985352 C 4.624659061431885 11.664850234985352 4.810697078704834 11.482889175415039 4.810697078704834 11.258012771606445 C 4.810697078704834 7.890660285949707 7.587319850921631 5.150873184204102 11.000055313110352 5.150873184204102 C 14.412468910217285 5.150873184204102 17.188984394073486 7.880932807922363 17.188984394073486 11.236054420471191 C 17.188984394073486 11.460930824279785 17.37545156478882 11.642605781555176 17.6055850982666 11.642605781555176 C 17.83582592010498 11.642605781555176 18.022507667541504 11.460573196411133 18.022507667541504 11.236054420471191 C 18.022293090820312 7.43182373046875 14.872092247009277 4.337770462036133 10.999733448028564 4.337770462036133 Z"/></g></svg>