<svg version="1.1" xmlns="http://www.w3.org/2000/svg" xmlns:xlink="http://www.w3.org/1999/xlink" width="15" height="15"><defs/><g><path fill="rgb(255,255,255)" stroke="none" paint-order="stroke fill markers" fill-rule="evenodd" d=" M 10.099856853485107 9.399981498718262 C 11.249988079071045 8.699960708618164 11.99993371963501 7.449979782104492 11.99993371963501 5.999941825866699 C 11.99993371963501 3.7999582290649414 10.199849605560303 1.9999456405639648 7.99990177154541 1.9999456405639648 C 5.799846649169922 1.9999456405639648 3.9998698234558105 3.7999582290649414 3.9998698234558105 5.999941825866699 C 3.9998698234558105 7.449979782104492 4.749922752380371 8.699960708618164 5.899946689605713 9.399981498718262 C 3.8998770713806152 10.149998664855957 2.3999857902526855 11.899943351745605 1.9999074935913086 13.999934196472168 C 1.9999074935913086 13.999934196472168 2.9999423027038574 13.999934196472168 2.9999423027038574 13.999934196472168 C 3.499906063079834 11.699957847595215 5.549972057342529 9.999938011169434 7.99990177154541 9.999938011169434 C 10.449938774108887 9.999938011169434 12.499897480010986 11.699957847595215 12.999968528747559 13.999934196472168 C 12.999968528747559 13.999934196472168 13.999896049499512 13.999934196472168 13.999896049499512 13.999934196472168 C 13.59992504119873 11.849946975708008 12.099926471710205 10.099930763244629 10.099856853485107 9.399981498718262 Z M 4.999904632568359 5.999941825866699 C 4.999904632568359 4.349989891052246 6.349914073944092 2.9999446868896484 7.99990177154541 2.9999446868896484 C 9.649889469146729 2.9999446868896484 10.999898910522461 4.349989891052246 10.999898910522461 5.999941825866699 C 10.999898910522461 7.649965286254883 9.649889469146729 8.99993896484375 7.99990177154541 8.99993896484375 C 6.349914073944092 8.99993896484375 4.999904632568359 7.649965286254883 4.999904632568359 5.999941825866699 Z"/></g></svg>