<svg version="1.1" xmlns="http://www.w3.org/2000/svg" xmlns:xlink="http://www.w3.org/1999/xlink" width="22" height="19"><defs/><g><path fill="rgb(0,0,0)" stroke="none" paint-order="stroke fill markers" fill-rule="evenodd" d=" M 20.65504217147827 1.9998769760131836 C 20.65504217147827 1.9998769760131836 17.206794261932373 1.9998769760131836 17.206794261932373 1.9998769760131836 C 17.206794261932373 1.9998769760131836 5.793029308319092 1.9998769760131836 5.793029308319092 1.9998769760131836 C 5.793029308319092 1.9998769760131836 2.3446741104125977 1.9998769760131836 2.3446741104125977 1.9998769760131836 C 2.1543445587158203 1.9998769760131836 1.9999566078186035 2.155302047729492 1.9999566078186035 2.347705841064453 C 1.9999566078186035 2.347705841064453 1.9999566078186035 6.1737518310546875 1.9999566078186035 6.1737518310546875 C 1.9999566078186035 6.1737518310546875 1.9999566078186035 9.999869346618652 1.9999566078186035 9.999869346618652 C 1.9999566078186035 9.999869346618652 1.9999566078186035 13.825915336608887 1.9999566078186035 13.825915336608887 C 1.9999566078186035 13.825915336608887 1.9999566078186035 17.65203285217285 1.9999566078186035 17.65203285217285 C 1.9999566078186035 17.844365119934082 2.1543445587158203 17.99986171722412 2.3446741104125977 17.99986171722412 C 2.3446741104125977 17.99986171722412 5.793029308319092 17.99986171722412 5.793029308319092 17.99986171722412 C 5.793029308319092 17.99986171722412 17.206794261932373 17.99986171722412 17.206794261932373 17.99986171722412 C 17.206794261932373 17.99986171722412 20.65504217147827 17.99986171722412 20.65504217147827 17.99986171722412 C 20.84537172317505 17.99986171722412 20.99986696243286 17.844365119934082 20.99986696243286 17.65203285217285 C 20.99986696243286 17.65203285217285 20.99986696243286 13.825915336608887 20.99986696243286 13.825915336608887 C 20.99986696243286 13.825915336608887 20.99986696243286 9.999869346618652 20.99986696243286 9.999869346618652 C 20.99986696243286 9.999869346618652 20.99986696243286 6.1737518310546875 20.99986696243286 6.1737518310546875 C 20.99986696243286 6.1737518310546875 20.99986696243286 2.347705841064453 20.99986696243286 2.347705841064453 C 20.99986696243286 2.155302047729492 20.84537172317505 1.9998769760131836 20.65504217147827 1.9998769760131836 Z M 20.31021738052368 9.652040481567383 C 20.31021738052368 9.652040481567383 17.551619052886963 9.652040481567383 17.551619052886963 9.652040481567383 C 17.551619052886963 9.652040481567383 17.551619052886963 6.521580696105957 17.551619052886963 6.521580696105957 C 17.551619052886963 6.521580696105957 20.31021738052368 6.521580696105957 20.31021738052368 6.521580696105957 C 20.31021738052368 6.521580696105957 20.31021738052368 9.652040481567383 20.31021738052368 9.652040481567383 Z M 16.861969470977783 6.1737518310546875 C 16.861969470977783 6.1737518310546875 16.861969470977783 9.652040481567383 16.861969470977783 9.652040481567383 C 16.861969470977783 9.652040481567383 6.137854099273682 9.652040481567383 6.137854099273682 9.652040481567383 C 6.137854099273682 9.652040481567383 6.137854099273682 6.1737518310546875 6.137854099273682 6.1737518310546875 C 6.137854099273682 6.1737518310546875 6.137854099273682 2.6955347061157227 6.137854099273682 2.6955347061157227 C 6.137854099273682 2.6955347061157227 16.861969470977783 2.6955347061157227 16.861969470977783 2.6955347061157227 C 16.861969470977783 2.6955347061157227 16.861969470977783 6.1737518310546875 16.861969470977783 6.1737518310546875 Z M 5.448097229003906 9.652040481567383 C 5.448097229003906 9.652040481567383 2.6894989013671875 9.652040481567383 2.6894989013671875 9.652040481567383 C 2.6894989013671875 9.652040481567383 2.6894989013671875 6.521580696105957 2.6894989013671875 6.521580696105957 C 2.6894989013671875 6.521580696105957 5.448097229003906 6.521580696105957 5.448097229003906 6.521580696105957 C 5.448097229003906 6.521580696105957 5.448097229003906 9.652040481567383 5.448097229003906 9.652040481567383 Z M 2.6894989013671875 10.347698211669922 C 2.6894989013671875 10.347698211669922 5.448097229003906 10.347698211669922 5.448097229003906 10.347698211669922 C 5.448097229003906 10.347698211669922 5.448097229003906 13.478086471557617 5.448097229003906 13.478086471557617 C 5.448097229003906 13.478086471557617 2.6894989013671875 13.478086471557617 2.6894989013671875 13.478086471557617 C 2.6894989013671875 13.478086471557617 2.6894989013671875 10.347698211669922 2.6894989013671875 10.347698211669922 Z M 6.137854099273682 13.825915336608887 C 6.137854099273682 13.825915336608887 6.137854099273682 10.347698211669922 6.137854099273682 10.347698211669922 C 6.137854099273682 10.347698211669922 16.861969470977783 10.347698211669922 16.861969470977783 10.347698211669922 C 16.861969470977783 10.347698211669922 16.861969470977783 13.825915336608887 16.861969470977783 13.825915336608887 C 16.861969470977783 13.825915336608887 16.861969470977783 17.304203987121582 16.861969470977783 17.304203987121582 C 16.861969470977783 17.304203987121582 6.137854099273682 17.304203987121582 6.137854099273682 17.304203987121582 C 6.137854099273682 17.304203987121582 6.137854099273682 13.825915336608887 6.137854099273682 13.825915336608887 Z M 17.551619052886963 10.347698211669922 C 17.551619052886963 10.347698211669922 20.31021738052368 10.347698211669922 20.31021738052368 10.347698211669922 C 20.31021738052368 10.347698211669922 20.31021738052368 13.478086471557617 20.31021738052368 13.478086471557617 C 20.31021738052368 13.478086471557617 17.551619052886963 13.478086471557617 17.551619052886963 13.478086471557617 C 17.551619052886963 13.478086471557617 17.551619052886963 10.347698211669922 17.551619052886963 10.347698211669922 Z M 20.31021738052368 2.6955347061157227 C 20.31021738052368 2.6955347061157227 20.31021738052368 5.825922966003418 20.31021738052368 5.825922966003418 C 20.31021738052368 5.825922966003418 17.551619052886963 5.825922966003418 17.551619052886963 5.825922966003418 C 17.551619052886963 5.825922966003418 17.551619052886963 2.6955347061157227 17.551619052886963 2.6955347061157227 C 17.551619052886963 2.6955347061157227 20.31021738052368 2.6955347061157227 20.31021738052368 2.6955347061157227 Z M 2.6894989013671875 2.6955347061157227 C 2.6894989013671875 2.6955347061157227 5.448097229003906 2.6955347061157227 5.448097229003906 2.6955347061157227 C 5.448097229003906 2.6955347061157227 5.448097229003906 5.825922966003418 5.448097229003906 5.825922966003418 C 5.448097229003906 5.825922966003418 2.6894989013671875 5.825922966003418 2.6894989013671875 5.825922966003418 C 2.6894989013671875 5.825922966003418 2.6894989013671875 2.6955347061157227 2.6894989013671875 2.6955347061157227 Z M 2.6894989013671875 17.304203987121582 C 2.6894989013671875 17.304203987121582 2.6894989013671875 14.173744201660156 2.6894989013671875 14.173744201660156 C 2.6894989013671875 14.173744201660156 5.448097229003906 14.173744201660156 5.448097229003906 14.173744201660156 C 5.448097229003906 14.173744201660156 5.448097229003906 17.304203987121582 5.448097229003906 17.304203987121582 C 5.448097229003906 17.304203987121582 2.6894989013671875 17.304203987121582 2.6894989013671875 17.304203987121582 Z M 20.31021738052368 17.304203987121582 C 20.31021738052368 17.304203987121582 17.551619052886963 17.304203987121582 17.551619052886963 17.304203987121582 C 17.551619052886963 17.304203987121582 17.551619052886963 14.173744201660156 17.551619052886963 14.173744201660156 C 17.551619052886963 14.173744201660156 20.31021738052368 14.173744201660156 20.31021738052368 14.173744201660156 C 20.31021738052368 14.173744201660156 20.31021738052368 17.304203987121582 20.31021738052368 17.304203987121582 Z"/></g></svg>