<svg version="1.1" xmlns="http://www.w3.org/2000/svg" xmlns:xlink="http://www.w3.org/1999/xlink" width="24" height="18"><defs/><g><path fill="rgb(0,0,0)" stroke="none" paint-order="stroke fill markers" fill-rule="evenodd" d=" M 8.798248767852783 7.492673873901367 C 8.798248767852783 7.725346565246582 8.618218898773193 7.913816452026367 8.396131992340088 7.913816452026367 C 8.396131992340088 7.913816452026367 7.433218955993652 7.913816452026367 7.433218955993652 7.913816452026367 C 7.433218955993652 7.913816452026367 7.433218955993652 8.922398567199707 7.433218955993652 8.922398567199707 C 7.433218955993652 9.154999732971191 7.2531890869140625 9.343612670898438 7.030994892120361 9.343612670898438 C 6.808907985687256 9.343612670898438 6.628985404968262 9.154999732971191 6.628985404968262 8.922398567199707 C 6.628985404968262 8.922398567199707 6.628985404968262 7.913816452026367 6.628985404968262 7.913816452026367 C 6.628985404968262 7.913816452026367 5.6659650802612305 7.913816452026367 5.6659650802612305 7.913816452026367 C 5.443878173828125 7.913816452026367 5.263848304748535 7.725346565246582 5.263848304748535 7.492673873901367 C 5.263848304748535 7.260072708129883 5.443878173828125 7.071531295776367 5.6659650802612305 7.071531295776367 C 5.6659650802612305 7.071531295776367 6.628985404968262 7.071531295776367 6.628985404968262 7.071531295776367 C 6.628985404968262 7.071531295776367 6.628985404968262 6.062949180603027 6.628985404968262 6.062949180603027 C 6.628985404968262 5.830348014831543 6.808907985687256 5.641806602478027 7.030994892120361 5.641806602478027 C 7.2531890869140625 5.641806602478027 7.433218955993652 5.830348014831543 7.433218955993652 6.062949180603027 C 7.433218955993652 6.062949180603027 7.433218955993652 7.071531295776367 7.433218955993652 7.071531295776367 C 7.433218955993652 7.071531295776367 8.396131992340088 7.071531295776367 8.396131992340088 7.071531295776367 C 8.618218898773193 7.071531295776367 8.798248767852783 7.260144233703613 8.798248767852783 7.492673873901367 Z M 11.239166259765625 7.071602821350098 C 11.239166259765625 7.071602821350098 11.082417964935303 7.071602821350098 11.082417964935303 7.071602821350098 C 10.860331058502197 7.071602821350098 10.680301189422607 7.260144233703613 10.680301189422607 7.492816925048828 C 10.680301189422607 7.7254180908203125 10.860331058502197 7.913959503173828 11.082417964935303 7.913959503173828 C 11.082417964935303 7.913959503173828 11.239166259765625 7.913959503173828 11.239166259765625 7.913959503173828 C 11.461360454559326 7.913959503173828 11.641390323638916 7.7254180908203125 11.641390323638916 7.492816925048828 C 11.641390323638916 7.260144233703613 11.461467742919922 7.071602821350098 11.239166259765625 7.071602821350098 Z M 18.082661628723145 11.792290687561035 C 18.02236557006836 11.568487167358398 17.800278663635254 11.438096046447754 17.586345672607422 11.50146770477295 C 17.37262725830078 11.564696311950684 17.248387336730957 11.797369003295898 17.308683395385742 12.021244049072266 C 17.496867179870605 12.718904495239258 18.06506633758545 13.717830657958984 18.53423833847046 14.420068740844727 C 18.612451553344727 14.537227630615234 18.737335205078125 14.599884033203125 18.864150047302246 14.599884033203125 C 18.943650722503662 14.599884033203125 19.024009704589844 14.575136184692383 19.09428358078003 14.523709297180176 C 19.276244640350342 14.390385627746582 19.32044744491577 14.1277437210083 19.193096160888672 13.937199592590332 C 18.659443855285645 13.138258934020996 18.21312427520752 12.276304244995117 18.082661628723145 11.792290687561035 Z M 6.413443088531494 11.50146770477295 C 6.199617385864258 11.438024520874023 5.977530479431152 11.568558692932129 5.9171271324157715 11.792362213134766 C 5.786879062652588 12.276018142700195 5.340559482574463 13.137972831726074 4.806692600250244 13.937271118164062 C 4.6793413162231445 14.127815246582031 4.723758697509766 14.390457153320312 4.905719757080078 14.523780822753906 C 4.975993633270264 14.575207710266113 5.05624532699585 14.599884033203125 5.135853290557861 14.599884033203125 C 5.262668132781982 14.599884033203125 5.387444496154785 14.537156105041504 5.465764999389648 14.420068740844727 C 5.9348297119140625 13.717616081237793 6.503136157989502 12.718546867370605 6.691105365753174 12.021244049072266 C 6.751508712768555 11.797440528869629 6.627161502838135 11.564696311950684 6.413443088531494 11.50146770477295 Z M 12.917478084564209 7.071602821350098 C 12.917478084564209 7.071602821350098 12.760622501373291 7.071602821350098 12.760622501373291 7.071602821350098 C 12.538535594940186 7.071602821350098 12.3583984375 7.260144233703613 12.3583984375 7.492816925048828 C 12.3583984375 7.7254180908203125 12.538535594940186 7.913959503173828 12.760622501373291 7.913959503173828 C 12.760622501373291 7.913959503173828 12.917478084564209 7.913959503173828 12.917478084564209 7.913959503173828 C 13.139564990997314 7.913959503173828 13.3197021484375 7.7254180908203125 13.3197021484375 7.492816925048828 C 13.3197021484375 7.260144233703613 13.139564990997314 7.071602821350098 12.917478084564209 7.071602821350098 Z M 16.99239730834961 9.318864822387695 C 16.03109359741211 9.318864822387695 15.248854160308838 8.499682426452637 15.248854160308838 7.492745399475098 C 15.248854160308838 6.485808372497559 16.03109359741211 5.6666259765625 16.99239730834961 5.6666259765625 C 17.953808307647705 5.6666259765625 18.73594045639038 6.485879898071289 18.73594045639038 7.492745399475098 C 18.73594045639038 8.499682426452637 17.953808307647705 9.318864822387695 16.99239730834961 9.318864822387695 Z M 17.93170690536499 7.492673873901367 C 17.93170690536499 6.950223922729492 17.51027822494507 6.5089111328125 16.99239730834961 6.5089111328125 C 16.47451639175415 6.5089111328125 16.05308771133423 6.950295448303223 16.05308771133423 7.492673873901367 C 16.05308771133423 8.035195350646973 16.47451639175415 8.476508140563965 16.99239730834961 8.476508140563965 C 17.51027822494507 8.476508140563965 17.93170690536499 8.035195350646973 17.93170690536499 7.492673873901367 Z M 11.243457794189453 12.44295883178711 C 9.080631732940674 12.45218563079834 9.043724536895752 12.514555931091309 8.09894323348999 14.11072063446045 C 7.038719654083252 15.902007102966309 6.281800270080566 16.999924659729004 4.169614315032959 16.999924659729004 C 3.532536029815674 16.999924659729004 2.957470417022705 16.731989860534668 2.5503110885620117 16.24554443359375 C 2.123410701751709 15.735710144042969 1.9308280944824219 15.02789306640625 2.0220232009887695 14.303911209106445 C 2.0220232009887695 14.303911209106445 2.890200614929199 7.410061836242676 2.890200614929199 7.410061836242676 C 3.389413356781006 3.445542335510254 5.238635540008545 2.613056182861328 7.271857261657715 2.501476287841797 C 7.2669219970703125 2.475369453430176 7.264454364776611 2.44854736328125 7.264454364776611 2.4210100173950195 C 7.264454364776611 2.188408851623535 7.444591522216797 1.9998674392700195 7.666678428649902 1.9998674392700195 C 7.666678428649902 1.9998674392700195 8.837623596191406 1.9998674392700195 8.837623596191406 1.9998674392700195 C 9.059603214263916 1.9998674392700195 9.239633083343506 2.188408851623535 9.239633083343506 2.4210100173950195 C 9.239633083343506 2.4434690475463867 9.237916469573975 2.4655704498291016 9.2348051071167 2.4870996475219727 C 9.2348051071167 2.4870996475219727 14.765090942382812 2.4870996475219727 14.765090942382812 2.4870996475219727 C 14.761872291564941 2.4655704498291016 14.76015567779541 2.4434690475463867 14.76015567779541 2.4210100173950195 C 14.76015567779541 2.188408851623535 14.940185546875 1.9998674392700195 15.162379741668701 1.9998674392700195 C 15.162379741668701 1.9998674392700195 16.33321762084961 1.9998674392700195 16.33321762084961 1.9998674392700195 C 16.55541181564331 1.9998674392700195 16.735334396362305 2.188408851623535 16.735334396362305 2.4210100173950195 C 16.735334396362305 2.44854736328125 16.732759475708008 2.475369453430176 16.728038787841797 2.501476287841797 C 18.761367797851562 2.613056182861328 20.610482692718506 3.445542335510254 21.109695434570312 7.410061836242676 C 21.109695434570312 7.410061836242676 21.977765560150146 14.303911209106445 21.977765560150146 14.303911209106445 C 22.0688533782959 15.02796459197998 21.876378059387207 15.735710144042969 21.4495849609375 16.24554443359375 C 21.04231834411621 16.731989860534668 20.467252731323242 16.999853134155273 19.83006715774536 16.999853134155273 C 17.71798849105835 16.999853134155273 16.96096181869507 15.902007102966309 15.90073823928833 14.110649108886719 C 14.956707954406738 12.515628814697266 14.919908046722412 12.453330039978027 12.78562068939209 12.44303035736084 C 12.78562068939209 12.44303035736084 11.243457794189453 12.44295883178711 11.243457794189453 12.44295883178711 Z M 12.789268493652344 11.60067367553711 C 15.225250720977783 11.612546920776367 15.506131649017334 11.845291137695312 16.58437967300415 13.66683292388916 C 17.606515884399414 15.393960952758789 18.130083084106445 16.157567977905273 19.83006715774536 16.157567977905273 C 20.232183933258057 16.157567977905273 20.592565536499023 15.991557121276855 20.84480047225952 15.690291404724121 C 21.12299919128418 15.357912063598633 21.242196559906006 14.904726028442383 21.18039846420288 14.414060592651367 C 21.18039846420288 14.414060592651367 20.312328338623047 7.520282745361328 20.312328338623047 7.520282745361328 C 20.093138217926025 5.779135704040527 19.59414005279541 4.627860069274902 18.78711700439453 4.000652313232422 C 18.026013374328613 3.4092788696289062 17.035634517669678 3.3295278549194336 16.167242527008057 3.3295278549194336 C 16.167242527008057 3.3295278549194336 7.832546234130859 3.3295278549194336 7.832546234130859 3.3295278549194336 C 6.964154243469238 3.3295278549194336 5.973882675170898 3.4092788696289062 5.212886333465576 4.000652313232422 C 4.405755996704102 4.627860069274902 3.9067578315734863 5.779135704040527 3.687567710876465 7.520282745361328 C 3.687567710876465 7.520282745361328 2.819390296936035 14.414060592651367 2.819390296936035 14.414060592651367 C 2.75759220123291 14.904654502868652 2.8767895698547363 15.357912063598633 3.1549882888793945 15.69021987915039 C 3.4072232246398926 15.991557121276855 3.7676048278808594 16.157567977905273 4.169614315032959 16.157567977905273 C 5.869598388671875 16.157567977905273 6.393165588378906 15.39403247833252 7.415409088134766 13.66683292388916 C 8.494300842285156 11.844003677368164 8.777005672454834 11.611187934875488 11.24002456665039 11.600602149963379 C 11.24002456665039 11.600602149963379 12.789268493652344 11.60067367553711 12.789268493652344 11.60067367553711 Z"/></g></svg>