<svg version="1.1" xmlns="http://www.w3.org/2000/svg" xmlns:xlink="http://www.w3.org/1999/xlink" width="19" height="17"><defs/><g><path fill="rgb(0,0,0)" stroke="none" paint-order="stroke fill markers" fill-rule="evenodd" d=" M 5.002109527587891 7.498772621154785 C 6.659929275512695 7.498772621154785 8.004252433776855 6.26352596282959 8.004252433776855 4.751976013183594 C 8.004252433776855 3.2404260635375977 6.659929275512695 1.9999580383300781 5.002109527587891 1.9999580383300781 C 3.3443970680236816 1.9999580383300781 1.99985933303833 3.2352046966552734 1.99985933303833 4.7467546463012695 C 1.99985933303833 6.258304595947266 3.349976062774658 7.498772621154785 5.002109527587891 7.498772621154785 Z M 5.002109527587891 3.2769041061401367 C 5.890886306762695 3.2769041061401367 6.6085381507873535 3.938873291015625 6.6085381507873535 4.7467546463012695 C 6.6085381507873535 5.554636001586914 5.885092735290527 6.216605186462402 5.002109527587891 6.216605186462402 C 4.119126319885254 6.216605186462402 3.395573616027832 5.554636001586914 3.395573616027832 4.7467546463012695 C 3.395573616027832 3.938873291015625 4.119126319885254 3.2769041061401367 5.002109527587891 3.2769041061401367 Z M 5.002109527587891 15.984209060668945 C 6.659929275512695 15.984209060668945 8.004252433776855 14.74896240234375 8.004252433776855 13.237412452697754 C 8.004252433776855 11.725862503051758 6.659929275512695 10.490615844726562 5.002109527587891 10.490615844726562 C 3.3443970680236816 10.490615844726562 1.99985933303833 11.720641136169434 1.99985933303833 13.237412452697754 C 1.99985933303833 14.754183769226074 3.349976062774658 15.984209060668945 5.002109527587891 15.984209060668945 Z M 5.002109527587891 11.767561912536621 C 5.890886306762695 11.767561912536621 6.6085381507873535 12.42953109741211 6.6085381507873535 13.237412452697754 C 6.6085381507873535 14.045293807983398 5.885092735290527 14.707262992858887 5.002109527587891 14.707262992858887 C 4.119126319885254 14.707262992858887 3.395573616027832 14.050515174865723 3.395573616027832 13.237412452697754 C 3.395573616027832 12.424309730529785 4.119126319885254 11.767561912536621 5.002109527587891 11.767561912536621 Z M 14.002100944519043 7.498772621154785 C 15.659920692443848 7.498772621154785 17.004351139068604 6.26352596282959 17.004351139068604 4.751976013183594 C 17.004351139068604 3.2404260635375977 15.659920692443848 1.9999580383300781 14.002100944519043 1.9999580383300781 C 12.344388484954834 1.9999580383300781 10.999850749969482 3.2352046966552734 10.999850749969482 4.7467546463012695 C 10.999850749969482 6.258304595947266 12.34996747970581 7.498772621154785 14.002100944519043 7.498772621154785 Z M 14.002100944519043 3.2769041061401367 C 14.890770435333252 3.2769041061401367 15.608636856079102 3.938873291015625 15.608636856079102 4.7467546463012695 C 15.608636856079102 5.554636001586914 14.885191440582275 6.216605186462402 14.002100944519043 6.216605186462402 C 13.119117736816406 6.216605186462402 12.395565032958984 5.554636001586914 12.395565032958984 4.7467546463012695 C 12.395565032958984 3.938873291015625 13.119117736816406 3.2769041061401367 14.002100944519043 3.2769041061401367 Z M 14.002100944519043 15.984209060668945 C 15.659920692443848 15.984209060668945 17.004351139068604 14.74896240234375 17.004351139068604 13.237412452697754 C 17.004351139068604 11.725862503051758 15.659920692443848 10.490615844726562 14.002100944519043 10.490615844726562 C 12.344388484954834 10.490615844726562 10.999850749969482 11.720641136169434 10.999850749969482 13.237412452697754 C 10.999850749969482 14.754183769226074 12.34996747970581 15.984209060668945 14.002100944519043 15.984209060668945 Z M 14.002100944519043 11.767561912536621 C 14.890770435333252 11.767561912536621 15.608636856079102 12.42953109741211 15.608636856079102 13.237412452697754 C 15.608636856079102 14.045293807983398 14.885191440582275 14.707262992858887 14.002100944519043 14.707262992858887 C 13.119117736816406 14.707262992858887 12.395565032958984 14.050515174865723 12.395565032958984 13.237412452697754 C 12.395565032958984 12.424309730529785 13.119117736816406 11.767561912536621 14.002100944519043 11.767561912536621 Z"/></g></svg>