<svg version="1.1" xmlns="http://www.w3.org/2000/svg" xmlns:xlink="http://www.w3.org/1999/xlink" width="20" height="17"><defs/><g><path fill="rgb(0,0,0)" stroke="none" paint-order="stroke fill markers" fill-rule="evenodd" d=" M 10.555309295654297 4.91619873046875 C 10.555309295654297 4.91619873046875 18.43370819091797 4.91619873046875 18.43370819091797 4.91619873046875 C 18.746668338775635 4.91619873046875 18.999868869781494 4.711134910583496 18.999868869781494 4.457576751708984 C 18.999868869781494 4.204090118408203 18.746668338775635 3.999026298522949 18.43370819091797 3.999026298522949 C 18.43370819091797 3.999026298522949 10.555309295654297 3.999026298522949 10.555309295654297 3.999026298522949 C 10.24234914779663 3.999026298522949 9.989148616790771 4.204090118408203 9.989148616790771 4.457576751708984 C 9.989148616790771 4.711134910583496 10.24234914779663 4.91619873046875 10.555309295654297 4.91619873046875 Z M 10.555309295654297 13.989646911621094 C 10.555309295654297 13.989646911621094 18.43370819091797 13.989646911621094 18.43370819091797 13.989646911621094 C 18.746668338775635 13.989646911621094 18.999868869781494 13.78458309173584 18.999868869781494 13.531096458435059 C 18.999868869781494 13.277538299560547 18.746668338775635 13.072474479675293 18.43370819091797 13.072474479675293 C 18.43370819091797 13.072474479675293 10.555309295654297 13.072474479675293 10.555309295654297 13.072474479675293 C 10.24234914779663 13.072474479675293 9.989148616790771 13.277538299560547 9.989148616790771 13.531096458435059 C 9.989148616790771 13.78458309173584 10.24234914779663 13.989646911621094 10.555309295654297 13.989646911621094 Z M 5.002171039581299 7.498772621154785 C 6.6599907875061035 7.498772621154785 8.004313945770264 6.26352596282959 8.004313945770264 4.751976013183594 C 8.004313945770264 3.2404260635375977 6.6599907875061035 1.9999580383300781 5.002171039581299 1.9999580383300781 C 3.344351291656494 1.9999580383300781 1.9999208450317383 3.2352046966552734 1.9999208450317383 4.7467546463012695 C 1.9999208450317383 6.258304595947266 3.3500375747680664 7.498772621154785 5.002171039581299 7.498772621154785 Z M 5.002171039581299 3.2769041061401367 C 5.890840530395508 3.2769041061401367 6.608599662780762 3.938873291015625 6.608599662780762 4.7467546463012695 C 6.608599662780762 5.554636001586914 5.8851542472839355 6.216605186462402 5.002171039581299 6.216605186462402 C 4.119187831878662 6.216605186462402 3.3956351280212402 5.554636001586914 3.3956351280212402 4.7467546463012695 C 3.3956351280212402 3.938873291015625 4.119187831878662 3.2769041061401367 5.002171039581299 3.2769041061401367 Z M 5.002171039581299 15.984209060668945 C 6.6599907875061035 15.984209060668945 8.004313945770264 14.74896240234375 8.004313945770264 13.237412452697754 C 8.004313945770264 11.725862503051758 6.6599907875061035 10.490615844726562 5.002171039581299 10.490615844726562 C 3.344351291656494 10.490615844726562 1.9999208450317383 11.720641136169434 1.9999208450317383 13.237412452697754 C 1.9999208450317383 14.754183769226074 3.3500375747680664 15.984209060668945 5.002171039581299 15.984209060668945 Z M 5.002171039581299 11.767561912536621 C 5.890840530395508 11.767561912536621 6.608599662780762 12.42953109741211 6.608599662780762 13.237412452697754 C 6.608599662780762 14.045293807983398 5.8851542472839355 14.707262992858887 5.002171039581299 14.707262992858887 C 4.119187831878662 14.707262992858887 3.3956351280212402 14.050515174865723 3.3956351280212402 13.237412452697754 C 3.3956351280212402 12.424309730529785 4.119187831878662 11.767561912536621 5.002171039581299 11.767561912536621 Z"/></g></svg>