<svg version="1.1" xmlns="http://www.w3.org/2000/svg" xmlns:xlink="http://www.w3.org/1999/xlink" width="18" height="15"><defs/><g><path fill="rgb(255,255,255)" stroke="none" paint-order="stroke fill markers" fill-rule="evenodd" d=" M 15.034436225891113 8.00035274028778 C 15.034436225891113 8.00035274028778 1.0510971546173096 8.00035274028778 1.0510971546173096 8.00035274028778 C 1.0510971546173096 8.00035274028778 1.0417094230651855 7.015187382698059 1.0417094230651855 7.015187382698059 C 1.0417094230651855 7.015187382698059 15.368192434310913 7.015187382698059 15.368192434310913 7.015187382698059 C 15.368192434310913 7.015187382698059 15.034436225891113 8.00035274028778 15.034436225891113 8.00035274028778 Z M 10.570972204208374 13.005223512649536 C 10.570972204208374 13.005223512649536 9.85669994354248 12.270549654960632 9.85669994354248 12.270549654960632 C 9.85669994354248 12.270549654960632 14.609842538833618 7.5945059061050415 14.609842538833618 7.5945059061050415 C 14.609842538833618 7.5945059061050415 9.922414064407349 2.69954776763916 9.922414064407349 2.69954776763916 C 9.922414064407349 2.69954776763916 10.658769845962524 1.9870386123657227 10.658769845962524 1.9870386123657227 C 10.658769845962524 1.9870386123657227 16.048579454421997 7.616670608520508 16.048579454421997 7.616670608520508 C 16.048579454421997 7.616670608520508 10.570972204208374 13.005223512649536 10.570972204208374 13.005223512649536 Z"/></g></svg>